<svg xmlns="http://www.w3.org/2000/svg" xmlns:xlink="http://www.w3.org/1999/xlink" viewBox="0 0 32 32"><defs><path id="a" d="M0 0h28.168v32H0z"/></defs><g fill="none" fill-rule="evenodd" transform="translate(2)"><mask id="b" fill="#fff"><use xlink:href="#a"/></mask><path fill="#D52D00" d="M.62 0c1.13 0 1.93 1.73 3.2 4.07C5.08 6.4 9.08 15.53 11.15 17.8c2.07 2.33 3.2 3 4.2 3s3.33-1.4 5.53-5c2.27-3.6 5.47-9.27 6.6-8.93 1.14.33.67 3.86 0 5.8a58.17 58.17 0 0 1-3.6 8.4c-1.6 3-6.66 10.93-9.53 10.93-2.8 0-8.13-8.87-10.27-14.53C1.95 11.8 1.28 8.73.75 6.73.15 4.27-.52 0 .62 0" mask="url(#b)"/></g></svg>