<svg xmlns="http://www.w3.org/2000/svg" viewBox="0 0 396.9 198.4"><path d="M283.4 115.1c-9.8 0-16.7-5.7-16.7-16 0-10.4 7.3-15.9 16.6-15.9 3 0 6.2 1.1 7.5 2.2l-1.8 4.9c-.8-.6-2.8-1.2-4.6-1.2-5 0-8.8 3.5-8.8 9.8 0 6.2 3.8 9.8 8.8 9.8 1.7 0 3.7-.5 4.6-1.3l1.9 5.4c-1.3 1.3-3.6 2.3-7.5 2.3" fill="#f59c00"/><path d="M315.8 109c-.6.3-1.5.5-2.7.5-4.5 0-8.5-3.8-8.5-10.5 0-6.3 3.9-10.6 8.8-10.6.9 0 1.7.1 2.5.3V109zm8.8 3.8V69.7h-8.8v14.2c-1.1-.3-2.7-.5-4.5-.5-7.9 0-15.5 6-15.5 15.9 0 10.3 7.8 15.7 17.1 15.7 5.3.1 8.9-.7 11.7-2.2" fill="#aeb618"/><path d="M245.1 64.9c-8.3 0-12.9 25.1-13.6 28.5-.7-3.4-5.4-21.2-12.9-21.2s-13.2 24.4-13.9 27.9c-.7-3.4-7.1-15.8-12.6-15.8-8.2 0-12.7 22-12.8 27 0 2.8.5 4.1 1.4 4.4 3.2 0 4.6-19.1 11.4-19.2 6.8 0 9.3 19.1 13.3 19.1s6.2-25.7 13.2-25.7c7 0 8.4 25.7 13.3 25.7 5.8 0 3.9-31.4 13.1-31.4s7.2 31.4 12.5 31.3c4.7.1 1.8-50.6-12.4-50.6" fill="#d4310f"/><path d="M161.2 88.4c-.7 1.1-3.9 6.4-3.3 12.4.6 6 2.6 11.2 5.7 9 3.2-2.1 5.2-14.4 3.7-19.3-1.4-4.9-4.3-5-6.1-2.1M53.2 76.5c-2.5-.1-23 4.3-23.7 13.8-.7 9.5 1.1 24.4 14.9 24.1 13.8-.2 16.2.2 16.5-4.7.2-5-5.1-1.9-10.5-4.4-5.5-2.5-3.2-6-3.2-6s10.8-.3 10.7-5c-.1-2.5-6.4-2.6-11.6-3.3-5.2-.7 3.4-3.6 9-6.5 5.6-3 6.3-7.5-2.1-8" fill="#f59c00"/><path d="M125.2 109.2c-8 0-17.3-20.6-17.3-20.6C96.1 63 94.4 64.2 93 65.2c-4.8 3.4 11.7 59 28.7 67.8 4.5 2.3 10-5.4 14.3-10.7 9.7-12.2 20-38.2 15.9-42.4-4.2-4.3-15.8 29.3-26.7 29.3" fill="#d4310f"/><path d="M79.1 96.1c-1.5.4-4.4 0-4.7-3.6-.3-3.6 1.8-4.2 2.6-4.3 2.3-.3 5.5 1.4 5.4 3.8-.1 2.5-1.8 3.7-3.3 4.1m-7-12.1c-1.1.2-9.5 1.7-8.6 14.4.9 11.9 10.6 13.2 15.7 11.9 5.1-1.3 10.6-5.3 10.9-13.4.2-8.1-10.3-13.9-18-12.9" fill="#f59c00"/><path d="M162.3 69.4c-.6.1-5 .9-4.5 7.5.5 6.2 5.5 6.8 8.1 6.2 2.6-.7 5.5-2.8 5.7-7 .2-4.2-5.3-7.2-9.3-6.7" fill="#897a7a"/><path d="M376.2 71.8c-2.6-40.4-94.7-67.2-205.7-60-57.1 3.7-108.1 15.8-143.8 32.1 34.7-13.1 80.5-22.3 131-24.8 110.7-5.5 202 23.2 204 64 .5 10.8-5.3 21.4-16.1 31.2 20.3-12.9 31.6-27.6 30.6-42.5" fill="#aeb618"/><path d="M184.2 132.9h1.5v-.1c.4-.3 1-.5 1.9-.5.9 0 1.7.3 2.4.9l.2.2.3-.2c.7-.6 1.5-.9 2.4-.9.9 0 1.7.3 2.4.9.6.6 1 1.3 1 2.2v7.9h-1.5v-8.2c0-.3-.2-.6-.5-.9-.4-.3-.8-.5-1.4-.5-.5 0-1 .2-1.4.5-.4.4-.6.8-.6 1.3v7.8h-1.5v-8.2c0-.3-.2-.6-.5-.9-.4-.3-.8-.5-1.4-.5-.5 0-1 .2-1.3.5-.3.3-.5.7-.6 1.1v8h-1.5v-10.4zM212.7 143.4c-1.4 0-2.5-.4-3.3-1.2-.8-.8-1.3-1.8-1.3-3v-6.5h1.5v6.4c0 .8.3 1.4.9 2 .6.6 1.3.8 2.2.8.8 0 1.5-.3 2.1-.8.6-.5.9-1.2.9-2v-6.4h1.5v6.5c0 1.2-.4 2.2-1.3 2.9-.8.9-1.9 1.3-3.2 1.3M230.4 132.9v-4.3h1.5v4.3h2.2v1.3h-2.2v9.1h-1.5v-9.1h-2.1v-1.3zM249.8 143.4c-1.4 0-2.5-.4-3.3-1.2-.8-.8-1.3-1.8-1.3-3v-6.5h1.5v6.4c0 .8.3 1.4.9 2 .6.6 1.3.8 2.2.8.8 0 1.5-.3 2.1-.8.6-.5.9-1.2.9-2v-6.4h1.5v6.5c0 1.2-.4 2.2-1.3 2.9-.9.9-1.9 1.3-3.2 1.3M268.6 141.2c.7.6 1.7.9 2.9.9 1.3 0 2.4-.4 3.3-1.3.1-.1.3-.3.4-.5l1.5.5c-.3.4-.6.8-.9 1-1.2 1.1-2.7 1.7-4.4 1.7-1.7 0-3.1-.6-4.3-1.7-1.2-1.1-1.8-2.5-1.8-4.1 0-1.6.6-3 1.8-4.1 1.2-1.1 2.7-1.7 4.3-1.7 1.5 0 2.7.4 3.8 1.2.2.1.4.3.5.5l.4.4-.9.8-6.6 6.4zm5.4-7.1c-.6-.5-1.5-.7-2.5-.7-1.3 0-2.4.4-3.3 1.3-.9.9-1.3 1.9-1.3 3.1 0 1 .2 1.8.7 2.4l6.4-6.1zM287.8 126.6h1.5v16.7h-1.5zM301.1 126.6h1.5v16.7h-1.5zM316.9 141.2c.7.6 1.7.9 2.9.9 1.3 0 2.4-.4 3.3-1.3.1-.1.3-.3.4-.5l1.5.5c-.3.4-.6.8-.9 1-1.2 1.1-2.7 1.7-4.4 1.7-1.7 0-3.2-.6-4.4-1.7-1.2-1.1-1.8-2.5-1.8-4.1 0-1.6.6-3 1.8-4.1 1.2-1.1 2.7-1.7 4.4-1.7 1.5 0 2.7.4 3.8 1.2.2.1.4.3.5.5l.4.4-.9.8-6.6 6.4zm5.4-7.1c-.6-.5-1.5-.7-2.5-.7-1.3 0-2.4.4-3.3 1.3-.9.9-1.4 1.9-1.4 3.1 0 1 .2 1.8.7 2.4l6.5-6.1z" fill="#897a7a"/><g><path fill="#7c7c7b" d="M141.8 157.1h182.5v.8H141.8z"/></g><g><path d="M51.1 148.9c-9.4 0-17.1 7.7-17.1 17.1 0 2.8.9 8.3 6 8.3 4.3 0 5.7-3.7 6.7-8.3 1.4-6.2 2.9-7.8 6.4-7.8 3.3 0 6.2 2.7 6.2 7.8 0 6.1-4.8 10.8-6.5 12.8h9.7c3.5-3.1 5.4-7.7 5.4-12.8-.1-9.5-7.4-17.1-16.8-17.1z" fill="#fff"/><path d="M45.5 189.1c9.4 0 17.1-7.7 17.1-17.1 0-2.8-.9-8.3-6-8.3-4.3 0-5.7 3.7-6.7 8.3-1.4 6.2-2.9 7.8-6.4 7.8-3.3 0-6.2-2.7-6.2-7.8 0-6.1 4.8-10.8 6.5-12.8h-9.6c-3.5 3.1-5.4 7.7-5.4 12.8 0 9.4 7.3 17.1 16.7 17.1z" fill="#fff"/><g fill="#7c7c7b"><path d="M79 164.8h4.4l9.3 21.8h-5l-2-4.9h-9.2l-2 4.9h-4.9l9.4-21.8zm5 12.7l-2.9-7-2.9 7H84zM136 164.9h4.8v21.6H136v-21.6zM144.7 175.8c0-6.2 4.9-11.3 11.5-11.3 6.7 0 11.5 5 11.5 11.1v.1c0 6.2-4.9 11.2-11.5 11.2-6.7.1-11.5-4.9-11.5-11.1zm18 0c0-3.8-2.7-6.9-6.6-6.9-3.8 0-6.5 3-6.5 6.7v.1c0 3.7 2.7 6.8 6.6 6.8 3.8.1 6.5-3 6.5-6.7zM124.6 173.5c-3.9-1-4.8-1.5-4.8-2.9v-.1c0-1.1 1-2 2.9-2 1.3 0 2.5.4 3.8 1 1.4.6 2.8.9 3.7-.3.8-1.2.1-2.6-.9-3.3-.5-.4-2-1.2-3.8-1.5-.9-.2-1.8-.3-2.7-.3-4.6 0-7.8 2.7-7.8 6.7v.1c0 4.4 2.9 5.7 7.4 6.8 3.7 1 4.5 1.6 4.5 2.8v.1c0 1.3-1.2 2.1-3.2 2.1-.5 0-1.1 0-1.6-.1-2.3-.4-4.2-1.8-4.7-2.1-.4-.3-1.4-1.2-2.3-2v5.4c1.5 1.6 3.6 2.8 6.8 3.1.5.1 1.1.1 1.6.1 4.8 0 8.2-2.5 8.2-6.9v-.1c0-3.8-2.6-5.4-7.1-6.6z"/></g><g fill="#7c7c7b"><path d="M76.3 156.4c0-2.2 1.7-4.1 4.1-4.1 1.4 0 2.2.4 3 1.1l-.9 1.1c-.6-.5-1.2-.8-2.2-.8-1.5 0-2.6 1.3-2.6 2.8 0 1.6 1.1 2.8 2.7 2.8.7 0 1.4-.2 1.9-.6v-1.5h-2V156h3.4v3.3c-.8.7-1.9 1.2-3.3 1.2-2.5 0-4.1-1.8-4.1-4.1zM86.4 152.5h3.5c1 0 1.8.3 2.3.8.4.4.7 1 .7 1.7 0 1.3-.8 2.1-1.9 2.4l2.1 3h-1.6l-1.9-2.8h-1.7v2.8h-1.4v-7.9zm3.4 3.9c1 0 1.6-.5 1.6-1.3s-.6-1.3-1.6-1.3h-2v2.7h2zM94.9 156.4c0-2.2 1.7-4.1 4.1-4.1s4.1 1.8 4.1 4.1c0 2.2-1.7 4.1-4.1 4.1-2.4 0-4.1-1.8-4.1-4.1zm6.8 0c0-1.6-1.1-2.8-2.7-2.8s-2.7 1.3-2.7 2.8c0 1.5 1.1 2.8 2.7 2.8s2.7-1.2 2.7-2.8zM105.5 157v-4.6h1.4v4.5c0 1.5.8 2.2 2 2.2s2-.7 2-2.2v-4.6h1.4v4.5c0 2.4-1.3 3.5-3.4 3.5-2.1.2-3.4-1-3.4-3.3zM115.1 152.5h3.1c1.9 0 3 1.1 3 2.6 0 1.8-1.4 2.7-3.2 2.7h-1.6v2.5H115v-7.8zm3 4.1c1.1 0 1.7-.6 1.7-1.4 0-.9-.7-1.4-1.7-1.4h-1.6v2.8h1.6zM123.3 152.5h5.9v1.2h-4.5v2.1h4v1.2h-4v2.1h4.5v1.2h-5.9v-7.8z"/></g><path d="M51.1 148.9c-9.4 0-17.1 7.7-17.1 17.1 0 2.8.9 8.3 6 8.3 4.3 0 5.7-3.7 6.7-8.3 1.4-6.2 2.9-7.8 6.4-7.8 3.3 0 6.2 2.7 6.2 7.8 0 6.1-4.8 10.8-6.5 12.8h9.7c3.5-3.1 5.4-7.7 5.4-12.8-.1-9.5-7.4-17.1-16.8-17.1z" fill="#a8a8a7"/><path d="M45.5 189.1c9.4 0 17.1-7.7 17.1-17.1 0-2.8-.9-8.3-6-8.3-4.3 0-5.7 3.7-6.7 8.3-1.4 6.2-2.9 7.8-6.4 7.8-3.3 0-6.2-2.7-6.2-7.8 0-6.1 4.8-10.8 6.5-12.8h-9.6c-3.5 3.1-5.4 7.7-5.4 12.8 0 9.4 7.3 17.1 16.7 17.1zM94.7 164.9h5.4l2.1-2h5l-1.7 2h5.5v4.2H99.4v4.4h10.2v4.2H99.4v4.5h11.7v4.2H94.7v-21.5z" fill="#7c7c7b"/></g></svg>