<?xml version="1.0" encoding="utf-8"?>
<!-- Generator: Adobe Illustrator 22.0.1, SVG Export Plug-In . SVG Version: 6.00 Build 0)  -->
<svg version="1.1" id="Calque_1" xmlns="http://www.w3.org/2000/svg" xmlns:xlink="http://www.w3.org/1999/xlink" x="0px" y="0px"
	 viewBox="0 0 396.9 198.4" style="enable-background:new 0 0 396.9 198.4;" xml:space="preserve">
<style type="text/css">
	.st0{fill:#F59C00;}
	.st1{fill:#AEB618;}
	.st2{fill:#D4310F;}
	.st3{fill:#897A7A;}
	.st4{fill:#7C7C7B;}
	.st5{fill:#FFFFFF;}
	.st6{fill:#A8A8A7;}
</style>
<g>
	<g>
		<path class="st0" d="M283.4,115.1c-9.8,0-16.7-5.7-16.7-16c0-10.4,7.3-15.9,16.6-15.9c3,0,6.2,1.1,7.5,2.2l-1.8,4.9
			c-0.8-0.6-2.8-1.2-4.6-1.2c-5,0-8.8,3.5-8.8,9.8c0,6.2,3.8,9.8,8.8,9.8c1.7,0,3.7-0.5,4.6-1.3l1.9,5.4
			C289.6,114.1,287.3,115.1,283.4,115.1"/>
		<path class="st1" d="M315.8,109c-0.6,0.3-1.5,0.5-2.7,0.5c-4.5,0-8.5-3.8-8.5-10.5c0-6.3,3.9-10.6,8.8-10.6c0.9,0,1.7,0.1,2.5,0.3
			V109z M324.6,112.8V69.7h-8.8v14.2c-1.1-0.3-2.7-0.5-4.5-0.5c-7.9,0-15.5,6-15.5,15.9c0,10.3,7.8,15.7,17.1,15.7
			C318.2,115.1,321.8,114.3,324.6,112.8"/>
		<path class="st2" d="M245.1,64.9c-8.3,0-12.9,25.1-13.6,28.5c-0.7-3.4-5.4-21.2-12.9-21.2c-7.5,0-13.2,24.4-13.9,27.9
			c-0.7-3.4-7.1-15.8-12.6-15.8c-8.2,0-12.7,22-12.8,27c0,2.8,0.5,4.1,1.4,4.4c3.2,0,4.6-19.1,11.4-19.2c6.8,0,9.3,19.1,13.3,19.1
			c4,0,6.2-25.7,13.2-25.7c7,0,8.4,25.7,13.3,25.7c5.8,0,3.9-31.4,13.1-31.4c9.2,0,7.2,31.4,12.5,31.3
			C262.2,115.6,259.3,64.9,245.1,64.9"/>
		<path class="st0" d="M161.2,88.4c-0.7,1.1-3.9,6.4-3.3,12.4c0.6,6,2.6,11.2,5.7,9c3.2-2.1,5.2-14.4,3.7-19.3
			C165.9,85.6,163,85.5,161.2,88.4"/>
		<path class="st0" d="M53.2,76.5c-2.5-0.1-23,4.3-23.7,13.8c-0.7,9.5,1.1,24.4,14.9,24.1c13.8-0.2,16.2,0.2,16.5-4.7
			c0.2-5-5.1-1.9-10.5-4.4c-5.5-2.5-3.2-6-3.2-6s10.8-0.3,10.7-5c-0.1-2.5-6.4-2.6-11.6-3.3c-5.2-0.7,3.4-3.6,9-6.5
			C60.9,81.5,61.6,77,53.2,76.5"/>
		<path class="st2" d="M125.2,109.2c-8,0-17.3-20.6-17.3-20.6C96.1,63,94.4,64.2,93,65.2c-4.8,3.4,11.7,59,28.7,67.8
			c4.5,2.3,10-5.4,14.3-10.7c9.7-12.2,20-38.2,15.9-42.4C147.7,75.6,136.1,109.2,125.2,109.2"/>
		<path class="st0" d="M79.1,96.1c-1.5,0.4-4.4,0-4.7-3.6c-0.3-3.6,1.8-4.2,2.6-4.3c2.3-0.3,5.5,1.4,5.4,3.8
			C82.3,94.5,80.6,95.7,79.1,96.1 M72.1,84c-1.1,0.2-9.5,1.7-8.6,14.4c0.9,11.9,10.6,13.2,15.7,11.9c5.1-1.3,10.6-5.3,10.9-13.4
			C90.3,88.8,79.8,83,72.1,84"/>
		<path class="st3" d="M162.3,69.4c-0.6,0.1-5,0.9-4.5,7.5c0.5,6.2,5.5,6.8,8.1,6.2c2.6-0.7,5.5-2.8,5.7-7
			C171.8,71.9,166.3,68.9,162.3,69.4"/>
		<path class="st1" d="M376.2,71.8c-2.6-40.4-94.7-67.2-205.7-60C113.4,15.5,62.4,27.6,26.7,43.9c34.7-13.1,80.5-22.3,131-24.8
			c110.7-5.5,202,23.2,204,64c0.5,10.8-5.3,21.4-16.1,31.2C365.9,101.4,377.2,86.7,376.2,71.8"/>
		<path class="st3" d="M184.2,132.9h1.5v-0.1c0.4-0.3,1-0.5,1.9-0.5c0.9,0,1.7,0.3,2.4,0.9l0.2,0.2l0.3-0.2c0.7-0.6,1.5-0.9,2.4-0.9
			c0.9,0,1.7,0.3,2.4,0.9c0.6,0.6,1,1.3,1,2.2v7.9h-1.5v-8.2c0-0.3-0.2-0.6-0.5-0.9c-0.4-0.3-0.8-0.5-1.4-0.5c-0.5,0-1,0.2-1.4,0.5
			c-0.4,0.4-0.6,0.8-0.6,1.3v7.8h-1.5v-8.2h0c0-0.3-0.2-0.6-0.5-0.9c-0.4-0.3-0.8-0.5-1.4-0.5c-0.5,0-1,0.2-1.3,0.5
			c-0.3,0.3-0.5,0.7-0.6,1.1v8h-1.5V132.9z"/>
		<path class="st3" d="M212.7,143.4c-1.4,0-2.5-0.4-3.3-1.2c-0.8-0.8-1.3-1.8-1.3-3v-6.5h1.5v6.4c0,0.8,0.3,1.4,0.9,2
			c0.6,0.6,1.3,0.8,2.2,0.8c0.8,0,1.5-0.3,2.1-0.8c0.6-0.5,0.9-1.2,0.9-2v-6.4h1.5v6.5c0,1.2-0.4,2.2-1.3,2.9
			C215.1,143,214,143.4,212.7,143.4"/>
		<polygon class="st3" points="230.4,132.9 230.4,128.6 231.9,128.6 231.9,132.9 234.1,132.9 234.1,134.2 231.9,134.2 231.9,143.3 
			230.4,143.3 230.4,134.2 228.3,134.2 228.3,132.9 		"/>
		<path class="st3" d="M249.8,143.4c-1.4,0-2.5-0.4-3.3-1.2c-0.8-0.8-1.3-1.8-1.3-3v-6.5h1.5v6.4c0,0.8,0.3,1.4,0.9,2
			c0.6,0.6,1.3,0.8,2.2,0.8c0.8,0,1.5-0.3,2.1-0.8c0.6-0.5,0.9-1.2,0.9-2v-6.4h1.5v6.5c0,1.2-0.4,2.2-1.3,2.9
			C252.1,143,251.1,143.4,249.8,143.4"/>
		<path class="st3" d="M268.6,141.2c0.7,0.6,1.7,0.9,2.9,0.9c1.3,0,2.4-0.4,3.3-1.3c0.1-0.1,0.3-0.3,0.4-0.5l1.5,0.5
			c-0.3,0.4-0.6,0.8-0.9,1c-1.2,1.1-2.7,1.7-4.4,1.7c-1.7,0-3.1-0.6-4.3-1.7c-1.2-1.1-1.8-2.5-1.8-4.1c0-1.6,0.6-3,1.8-4.1
			c1.2-1.1,2.7-1.7,4.3-1.7c1.5,0,2.7,0.4,3.8,1.2c0.2,0.1,0.4,0.3,0.5,0.5c0.1,0.1,0.2,0.2,0.4,0.4l-0.9,0.8L268.6,141.2z
			 M274,134.1c-0.6-0.5-1.5-0.7-2.5-0.7c-1.3,0-2.4,0.4-3.3,1.3c-0.9,0.9-1.3,1.9-1.3,3.1c0,1,0.2,1.8,0.7,2.4L274,134.1z"/>
		<rect x="287.8" y="126.6" class="st3" width="1.5" height="16.7"/>
		<rect x="301.1" y="126.6" class="st3" width="1.5" height="16.7"/>
		<path class="st3" d="M316.9,141.2c0.7,0.6,1.7,0.9,2.9,0.9c1.3,0,2.4-0.4,3.3-1.3c0.1-0.1,0.3-0.3,0.4-0.5l1.5,0.5
			c-0.3,0.4-0.6,0.8-0.9,1c-1.2,1.1-2.7,1.7-4.4,1.7c-1.7,0-3.2-0.6-4.4-1.7c-1.2-1.1-1.8-2.5-1.8-4.1c0-1.6,0.6-3,1.8-4.1
			c1.2-1.1,2.7-1.7,4.4-1.7c1.5,0,2.7,0.4,3.8,1.2c0.2,0.1,0.4,0.3,0.5,0.5c0.1,0.1,0.2,0.2,0.4,0.4l-0.9,0.8L316.9,141.2z
			 M322.3,134.1c-0.6-0.5-1.5-0.7-2.5-0.7c-1.3,0-2.4,0.4-3.3,1.3c-0.9,0.9-1.4,1.9-1.4,3.1c0,1,0.2,1.8,0.7,2.4L322.3,134.1z"/>
	</g>
	<g>
		<rect x="141.8" y="157.1" class="st4" width="182.5" height="0.8"/>
	</g>
	<g>
		<path class="st5" d="M51.1,148.9c-9.4,0-17.1,7.7-17.1,17.1c0,2.8,0.9,8.3,6,8.3c4.3,0,5.7-3.7,6.7-8.3c1.4-6.2,2.9-7.8,6.4-7.8
			c3.3,0,6.2,2.7,6.2,7.8c0,6.1-4.8,10.8-6.5,12.8h9.7c3.5-3.1,5.4-7.7,5.4-12.8C67.8,156.5,60.5,148.9,51.1,148.9z"/>
		<path class="st5" d="M45.5,189.1c9.4,0,17.1-7.7,17.1-17.1c0-2.8-0.9-8.3-6-8.3c-4.3,0-5.7,3.7-6.7,8.3c-1.4,6.2-2.9,7.8-6.4,7.8
			c-3.3,0-6.2-2.7-6.2-7.8c0-6.1,4.8-10.8,6.5-12.8h-9.6c-3.5,3.1-5.4,7.7-5.4,12.8C28.8,181.4,36.1,189.1,45.5,189.1z"/>
		<g>
			<path class="st4" d="M79,164.8h4.4l9.3,21.8h-5l-2-4.9h-9.2l-2,4.9h-4.9L79,164.8z M84,177.5l-2.9-7l-2.9,7H84z"/>
			<path class="st4" d="M136,164.9h4.8v21.6H136V164.9z"/>
			<path class="st4" d="M144.7,175.8L144.7,175.8c0-6.2,4.9-11.3,11.5-11.3c6.7,0,11.5,5,11.5,11.1v0.1c0,6.2-4.9,11.2-11.5,11.2
				C149.5,187,144.7,182,144.7,175.8z M162.7,175.8L162.7,175.8c0-3.8-2.7-6.9-6.6-6.9c-3.8,0-6.5,3-6.5,6.7v0.1
				c0,3.7,2.7,6.8,6.6,6.8C160,182.6,162.7,179.5,162.7,175.8z"/>
			<path class="st4" d="M124.6,173.5c-3.9-1-4.8-1.5-4.8-2.9v-0.1c0-1.1,1-2,2.9-2c1.3,0,2.5,0.4,3.8,1v0c1.4,0.6,2.8,0.9,3.7-0.3
				c0.8-1.2,0.1-2.6-0.9-3.3c-0.5-0.4-2-1.2-3.8-1.5l0,0c-0.9-0.2-1.8-0.3-2.7-0.3c-4.6,0-7.8,2.7-7.8,6.7v0.1
				c0,4.4,2.9,5.7,7.4,6.8c3.7,1,4.5,1.6,4.5,2.8v0.1c0,1.3-1.2,2.1-3.2,2.1c-0.5,0-1.1,0-1.6-0.1c-2.3-0.4-4.2-1.8-4.7-2.1
				c-0.4-0.3-1.4-1.2-2.3-2v5.4c1.5,1.6,3.6,2.8,6.8,3.1c0.5,0.1,1.1,0.1,1.6,0.1c4.8,0,8.2-2.5,8.2-6.9v-0.1
				C131.7,176.3,129.1,174.7,124.6,173.5z"/>
		</g>
		<g>
			<path class="st4" d="M76.3,156.4L76.3,156.4c0-2.2,1.7-4.1,4.1-4.1c1.4,0,2.2,0.4,3,1.1l-0.9,1.1c-0.6-0.5-1.2-0.8-2.2-0.8
				c-1.5,0-2.6,1.3-2.6,2.8v0c0,1.6,1.1,2.8,2.7,2.8c0.7,0,1.4-0.2,1.9-0.6v-1.5h-2V156h3.4v3.3c-0.8,0.7-1.9,1.2-3.3,1.2
				C77.9,160.5,76.3,158.7,76.3,156.4z"/>
			<path class="st4" d="M86.4,152.5h3.5c1,0,1.8,0.3,2.3,0.8c0.4,0.4,0.7,1,0.7,1.7v0c0,1.3-0.8,2.1-1.9,2.4l2.1,3h-1.6l-1.9-2.8
				h-1.7v2.8h-1.4V152.5z M89.8,156.4c1,0,1.6-0.5,1.6-1.3v0c0-0.8-0.6-1.3-1.6-1.3h-2v2.7H89.8z"/>
			<path class="st4" d="M94.9,156.4L94.9,156.4c0-2.2,1.7-4.1,4.1-4.1s4.1,1.8,4.1,4.1v0c0,2.2-1.7,4.1-4.1,4.1
				C96.6,160.5,94.9,158.7,94.9,156.4z M101.7,156.4L101.7,156.4c0-1.6-1.1-2.8-2.7-2.8c-1.6,0-2.7,1.3-2.7,2.8v0
				c0,1.5,1.1,2.8,2.7,2.8C100.6,159.2,101.7,158,101.7,156.4z"/>
			<path class="st4" d="M105.5,157v-4.6h1.4v4.5c0,1.5,0.8,2.2,2,2.2c1.2,0,2-0.7,2-2.2v-4.6h1.4v4.5c0,2.4-1.3,3.5-3.4,3.5
				C106.8,160.5,105.5,159.3,105.5,157z"/>
			<path class="st4" d="M115.1,152.5h3.1c1.9,0,3,1.1,3,2.6v0c0,1.8-1.4,2.7-3.2,2.7h-1.6v2.5h-1.4V152.5z M118.1,156.6
				c1.1,0,1.7-0.6,1.7-1.4v0c0-0.9-0.7-1.4-1.7-1.4h-1.6v2.8H118.1z"/>
			<path class="st4" d="M123.3,152.5h5.9v1.2h-4.5v2.1h4v1.2h-4v2.1h4.5v1.2h-5.9V152.5z"/>
		</g>
		<path class="st6" d="M51.1,148.9c-9.4,0-17.1,7.7-17.1,17.1c0,2.8,0.9,8.3,6,8.3c4.3,0,5.7-3.7,6.7-8.3c1.4-6.2,2.9-7.8,6.4-7.8
			c3.3,0,6.2,2.7,6.2,7.8c0,6.1-4.8,10.8-6.5,12.8h9.7c3.5-3.1,5.4-7.7,5.4-12.8C67.8,156.5,60.5,148.9,51.1,148.9z"/>
		<path class="st4" d="M45.5,189.1c9.4,0,17.1-7.7,17.1-17.1c0-2.8-0.9-8.3-6-8.3c-4.3,0-5.7,3.7-6.7,8.3c-1.4,6.2-2.9,7.8-6.4,7.8
			c-3.3,0-6.2-2.7-6.2-7.8c0-6.1,4.8-10.8,6.5-12.8h-9.6c-3.5,3.1-5.4,7.7-5.4,12.8C28.8,181.4,36.1,189.1,45.5,189.1z"/>
		<path class="st4" d="M94.7,164.9h5.4l2.1-2h5l-1.7,2h5.5v4.2H99.4v4.4h10.2v4.2H99.4v4.5h11.7v4.2H94.7V164.9z"/>
	</g>
</g>
</svg>
